# Exported from Wings 3D 2.2.9
#mtllib torus.mtl
o Torus1
#128 vertices, 256 faces
v 1.25000000 0.0000000e+0 0.0000000e+0
v 1.17677670 -0.17677670 0.0000000e+0
v 1.00000000 -0.25000000 0.0000000e+0
v 0.82322330 -0.17677670 0.0000000e+0
v 0.75000000 -3.0616170e-17 0.0000000e+0
v 0.82322330 0.17677670 0.0000000e+0
v 1.00000000 0.25000000 0.0000000e+0
v 1.17677670 0.17677670 0.0000000e+0
v 1.15484942 0.0000000e+0 0.47835429
v 1.08719990 -0.17677670 0.45033294
v 0.92387953 -0.25000000 0.38268343
v 0.76055916 -0.17677670 0.31503392
v 0.69290965 -3.0616170e-17 0.28701257
v 0.76055916 0.17677670 0.31503392
v 0.92387953 0.25000000 0.38268343
v 1.08719990 0.17677670 0.45033294
v 0.88388348 0.0000000e+0 0.88388348
v 0.83210678 -0.17677670 0.83210678
v 0.70710678 -0.25000000 0.70710678
v 0.58210678 -0.17677670 0.58210678
v 0.53033009 -3.0616170e-17 0.53033009
v 0.58210678 0.17677670 0.58210678
v 0.70710678 0.25000000 0.70710678
v 0.83210678 0.17677670 0.83210678
v 0.47835429 0.0000000e+0 1.15484942
v 0.45033294 -0.17677670 1.08719990
v 0.38268343 -0.25000000 0.92387953
v 0.31503392 -0.17677670 0.76055916
v 0.28701257 -3.0616170e-17 0.69290965
v 0.31503392 0.17677670 0.76055916
v 0.38268343 0.25000000 0.92387953
v 0.45033294 0.17677670 1.08719990
v 7.6540425e-17 0.0000000e+0 1.25000000
v 7.2056791e-17 -0.17677670 1.17677670
v 6.1232340e-17 -0.25000000 1.00000000
v 5.0407889e-17 -0.17677670 0.82322330
v 4.5924255e-17 -3.0616170e-17 0.75000000
v 5.0407889e-17 0.17677670 0.82322330
v 6.1232340e-17 0.25000000 1.00000000
v 7.2056791e-17 0.17677670 1.17677670
v -0.47835429 0.0000000e+0 1.15484942
v -0.45033294 -0.17677670 1.08719990
v -0.38268343 -0.25000000 0.92387953
v -0.31503392 -0.17677670 0.76055916
v -0.28701257 -3.0616170e-17 0.69290965
v -0.31503392 0.17677670 0.76055916
v -0.38268343 0.25000000 0.92387953
v -0.45033294 0.17677670 1.08719990
v -0.88388348 0.0000000e+0 0.88388348
v -0.83210678 -0.17677670 0.83210678
v -0.70710678 -0.25000000 0.70710678
v -0.58210678 -0.17677670 0.58210678
v -0.53033009 -3.0616170e-17 0.53033009
v -0.58210678 0.17677670 0.58210678
v -0.70710678 0.25000000 0.70710678
v -0.83210678 0.17677670 0.83210678
v -1.15484942 0.0000000e+0 0.47835429
v -1.08719990 -0.17677670 0.45033294
v -0.92387953 -0.25000000 0.38268343
v -0.76055916 -0.17677670 0.31503392
v -0.69290965 -3.0616170e-17 0.28701257
v -0.76055916 0.17677670 0.31503392
v -0.92387953 0.25000000 0.38268343
v -1.08719990 0.17677670 0.45033294
v -1.25000000 0.0000000e+0 1.5308085e-16
v -1.17677670 -0.17677670 1.4411358e-16
v -1.00000000 -0.25000000 1.2246468e-16
v -0.82322330 -0.17677670 1.0081578e-16
v -0.75000000 -3.0616170e-17 9.1848510e-17
v -0.82322330 0.17677670 1.0081578e-16
v -1.00000000 0.25000000 1.2246468e-16
v -1.17677670 0.17677670 1.4411358e-16
v -1.15484942 0.0000000e+0 -0.47835429
v -1.08719990 -0.17677670 -0.45033294
v -0.92387953 -0.25000000 -0.38268343
v -0.76055916 -0.17677670 -0.31503392
v -0.69290965 -3.0616170e-17 -0.28701257
v -0.76055916 0.17677670 -0.31503392
v -0.92387953 0.25000000 -0.38268343
v -1.08719990 0.17677670 -0.45033294
v -0.88388348 0.0000000e+0 -0.88388348
v -0.83210678 -0.17677670 -0.83210678
v -0.70710678 -0.25000000 -0.70710678
v -0.58210678 -0.17677670 -0.58210678
v -0.53033009 -3.0616170e-17 -0.53033009
v -0.58210678 0.17677670 -0.58210678
v -0.70710678 0.25000000 -0.70710678
v -0.83210678 0.17677670 -0.83210678
v -0.47835429 0.0000000e+0 -1.15484942
v -0.45033294 -0.17677670 -1.08719990
v -0.38268343 -0.25000000 -0.92387953
v -0.31503392 -0.17677670 -0.76055916
v -0.28701257 -3.0616170e-17 -0.69290965
v -0.31503392 0.17677670 -0.76055916
v -0.38268343 0.25000000 -0.92387953
v -0.45033294 0.17677670 -1.08719990
v -2.2962127e-16 0.0000000e+0 -1.25000000
v -2.1617037e-16 -0.17677670 -1.17677670
v -1.8369702e-16 -0.25000000 -1.00000000
v -1.5122367e-16 -0.17677670 -0.82322330
v -1.3777276e-16 -3.0616170e-17 -0.75000000
v -1.5122367e-16 0.17677670 -0.82322330
v -1.8369702e-16 0.25000000 -1.00000000
v -2.1617037e-16 0.17677670 -1.17677670
v 0.47835429 0.0000000e+0 -1.15484942
v 0.45033294 -0.17677670 -1.08719990
v 0.38268343 -0.25000000 -0.92387953
v 0.31503392 -0.17677670 -0.76055916
v 0.28701257 -3.0616170e-17 -0.69290965
v 0.31503392 0.17677670 -0.76055916
v 0.38268343 0.25000000 -0.92387953
v 0.45033294 0.17677670 -1.08719990
v 0.88388348 0.0000000e+0 -0.88388348
v 0.83210678 -0.17677670 -0.83210678
v 0.70710678 -0.25000000 -0.70710678
v 0.58210678 -0.17677670 -0.58210678
v 0.53033009 -3.0616170e-17 -0.53033009
v 0.58210678 0.17677670 -0.58210678
v 0.70710678 0.25000000 -0.70710678
v 0.83210678 0.17677670 -0.83210678
v 1.15484942 0.0000000e+0 -0.47835429
v 1.08719990 -0.17677670 -0.45033294
v 0.92387953 -0.25000000 -0.38268343
v 0.76055916 -0.17677670 -0.31503392
v 0.69290965 -3.0616170e-17 -0.28701257
v 0.76055916 0.17677670 -0.31503392
v 0.92387953 0.25000000 -0.38268343
v 1.08719990 0.17677670 -0.45033294
vn 1.00000000 5.0400074e-16 -3.5890962e-16
vn 0.70509498 -0.70911288 -1.1755148e-16
vn 6.0258661e-17 -1.00000000 -3.7661663e-18
vn -0.70509498 -0.70911288 6.2567723e-17
vn -1.00000000 -4.5818250e-17 2.2909125e-17
vn -0.70509498 0.70911288 1.1375950e-17
vn 0.0000000e+0 1.00000000 -1.8830832e-17
vn 0.70509498 0.70911288 -1.3651139e-16
vn 0.92387953 4.2000062e-16 0.38268343
vn 0.65142282 -0.70911288 0.26982817
vn 5.2726329e-17 -1.00000000 5.6492495e-18
vn -0.65142282 -0.70911288 -0.26982817
vn -0.92387953 -2.2145487e-16 -0.38268343
vn -0.65142282 0.70911288 -0.26982817
vn 2.0337298e-16 1.00000000 6.4024828e-17
vn 0.65142282 0.70911288 0.26982817
vn 0.70710678 5.9563724e-16 0.70710678
vn 0.49857744 -0.70911288 0.49857744
vn 3.0129331e-17 -1.00000000 -1.0545266e-16
vn -0.49857744 -0.70911288 -0.49857744
vn -0.70710678 -2.4436400e-16 -0.70710678
vn -0.49857744 0.70911288 -0.49857744
vn 1.5817899e-16 1.00000000 1.0545266e-16
vn 0.49857744 0.70911288 0.49857744
vn 0.38268343 5.8036449e-16 0.92387953
vn 0.26982817 -0.70911288 0.65142282
vn -2.2596998e-17 -1.00000000 2.2596998e-17
vn -0.26982817 -0.70911288 -0.65142282
vn -0.38268343 -2.9018225e-16 -0.92387953
vn -0.26982817 0.70911288 -0.65142282
vn 0.0000000e+0 1.00000000 1.2804966e-16
vn 0.26982817 0.70911288 0.65142282
vn -1.5272750e-17 4.5818250e-16 1.00000000
vn -1.8959916e-18 -0.70911288 0.70509498
vn 3.7661663e-18 -1.00000000 -1.2051732e-16
vn -3.7919832e-18 -0.70911288 -0.70509498
vn -1.5272750e-17 -3.6654600e-16 -1.00000000
vn -3.7919832e-18 0.70911288 -0.70509498
vn 7.5323327e-18 1.00000000 2.7116398e-16
vn 7.5839664e-18 0.70911288 0.70509498
vn -0.38268343 4.8872799e-16 0.92387953
vn -0.26982817 -0.70911288 0.65142282
vn 8.2855659e-17 -1.00000000 -6.0258661e-17
vn 0.26982817 -0.70911288 -0.65142282
vn 0.38268343 -3.2072775e-16 -0.92387953
vn 0.26982817 0.70911288 -0.65142282
vn 3.7661663e-17 1.00000000 3.7661663e-17
vn -0.26982817 0.70911288 0.65142282
vn -0.70710678 4.5818250e-16 0.70710678
vn -0.49857744 -0.70911288 0.49857744
vn 1.5064665e-16 -1.00000000 -4.3687529e-16
vn 0.49857744 -0.70911288 -0.49857744
vn 0.70710678 -4.5818250e-16 -0.70710678
vn 0.49857744 0.70911288 -0.49857744
vn -1.8077598e-16 1.00000000 6.7790994e-17
vn -0.49857744 0.70911288 0.49857744
vn -0.92387953 4.8109162e-16 0.38268343
vn -0.65142282 -0.70911288 0.26982817
vn -8.2855659e-17 -1.00000000 -4.1427830e-17
vn 0.65142282 -0.70911288 -0.26982817
vn 0.92387953 -4.5054612e-16 -0.38268343
vn 0.65142282 0.70911288 -0.26982817
vn -2.2596998e-16 1.00000000 6.7790994e-17
vn -0.65142282 0.70911288 0.26982817
vn -1.00000000 1.0690925e-15 0.0000000e+0
vn -0.70509498 -0.70911288 5.6879748e-17
vn -7.5323327e-17 -1.00000000 6.0258661e-17
vn 0.70509498 -0.70911288 -1.1375950e-16
vn 1.00000000 -2.4436400e-16 -1.9090937e-16
vn 0.70509498 0.70911288 -1.4788734e-16
vn -3.0129331e-16 1.00000000 -4.5193996e-17
vn -0.70509498 0.70911288 9.4799580e-17
vn -0.92387953 -3.5127325e-16 -0.38268343
vn -0.65142282 -0.70911288 -0.26982817
vn -4.5193996e-17 -1.00000000 -3.0129331e-17
vn 0.65142282 -0.70911288 0.26982817
vn 0.92387953 -2.1381850e-16 0.38268343
vn 0.65142282 0.70911288 0.26982817
vn 5.2726329e-17 1.00000000 2.0713915e-17
vn -0.65142282 0.70911288 -0.26982817
vn -0.70710678 1.1454562e-15 -0.70710678
vn -0.49857744 -0.70911288 -0.49857744
vn 2.0337298e-16 -1.00000000 1.9584065e-16
vn 0.49857744 -0.70911288 0.49857744
vn 0.70710678 -4.7345525e-16 0.70710678
vn 0.49857744 0.70911288 0.49857744
vn -9.0387992e-17 1.00000000 0.0000000e+0
vn -0.49857744 0.70911288 -0.49857744
vn -0.38268343 5.8036449e-16 -0.92387953
vn -0.26982817 -0.70911288 -0.65142282
vn 6.4024828e-17 -1.00000000 6.7790994e-17
vn 0.26982817 -0.70911288 0.65142282
vn 0.38268343 -3.0545500e-16 0.92387953
vn 0.26982817 0.70911288 0.65142282
vn 6.7790994e-17 1.00000000 -9.0387992e-17
vn -0.26982817 0.70911288 -0.65142282
vn -7.6363749e-18 4.8872799e-16 -1.00000000
vn -1.5167933e-17 -0.70911288 -0.70509498
vn 1.0921882e-16 -1.00000000 3.0129331e-17
vn 1.4409536e-16 -0.70911288 0.70509498
vn 1.5272750e-17 -3.6654600e-16 1.00000000
vn 4.1711815e-17 0.70911288 0.70509498
vn 3.7661663e-18 1.00000000 -2.1090531e-16
vn -1.1375950e-17 0.70911288 -0.70509498
vn 0.38268343 5.3454624e-16 -0.92387953
vn 0.26982817 -0.70911288 -0.65142282
vn -4.5193996e-17 -1.00000000 9.0387992e-17
vn -0.26982817 -0.70911288 0.65142282
vn -0.38268343 -3.0545500e-16 0.92387953
vn -0.26982817 0.70911288 0.65142282
vn 7.5323327e-18 1.00000000 -9.0387992e-17
vn 0.26982817 0.70911288 -0.65142282
vn 0.70710678 4.8872799e-16 -0.70710678
vn 0.49857744 -0.70911288 -0.49857744
vn -6.0258661e-17 -1.00000000 1.4311432e-16
vn -0.49857744 -0.70911288 0.49857744
vn -0.70710678 -3.6654600e-16 0.70710678
vn -0.49857744 0.70911288 0.49857744
vn 4.5193996e-17 1.00000000 2.2596998e-17
vn 0.49857744 0.70911288 -0.49857744
vn 0.92387953 4.9636437e-16 -0.38268343
vn 0.65142282 -0.70911288 -0.26982817
vn -1.0545266e-16 -1.00000000 6.7790994e-17
vn -0.65142282 -0.70911288 0.26982817
vn -0.92387953 -4.5054612e-16 0.38268343
vn -0.65142282 0.70911288 0.26982817
vn 3.0129331e-17 1.00000000 -1.5064665e-17
vn 0.65142282 0.70911288 -0.26982817
g Torus1_default
#usemtl default
s 1
f 1//1 9//9 2//2
f 1//1 121//121 8//8
f 2//2 9//9 10//10
f 2//2 11//11 3//3
f 2//2 121//121 1//1
f 2//2 123//123 122//122
f 3//3 11//11 4//4
f 3//3 123//123 2//2
f 4//4 11//11 12//12
f 4//4 13//13 5//5
f 4//4 123//123 3//3
f 4//4 125//125 124//124
f 5//5 13//13 6//6
f 5//5 125//125 4//4
f 6//6 13//13 14//14
f 6//6 15//15 7//7
f 6//6 125//125 5//5
f 6//6 127//127 126//126
f 7//7 15//15 8//8
f 7//7 127//127 6//6
f 8//8 9//9 1//1
f 8//8 15//15 16//16
f 8//8 121//121 128//128
f 8//8 127//127 7//7
f 9//9 18//18 10//10
f 9//9 24//24 17//17
f 10//10 11//11 2//2
f 10//10 18//18 11//11
f 11//11 18//18 19//19
f 11//11 20//20 12//12
f 12//12 13//13 4//4
f 12//12 20//20 13//13
f 13//13 20//20 21//21
f 13//13 22//22 14//14
f 14//14 15//15 6//6
f 14//14 22//22 15//15
f 15//15 22//22 23//23
f 15//15 24//24 16//16
f 16//16 9//9 8//8
f 16//16 24//24 9//9
f 17//17 18//18 9//9
f 17//17 25//25 18//18
f 18//18 25//25 26//26
f 18//18 27//27 19//19
f 19//19 20//20 11//11
f 19//19 27//27 20//20
f 20//20 27//27 28//28
f 20//20 29//29 21//21
f 21//21 22//22 13//13
f 21//21 29//29 22//22
f 22//22 29//29 30//30
f 22//22 31//31 23//23
f 23//23 24//24 15//15
f 23//23 31//31 24//24
f 24//24 25//25 17//17
f 24//24 31//31 32//32
f 25//25 34//34 26//26
f 25//25 40//40 33//33
f 26//26 27//27 18//18
f 26//26 34//34 27//27
f 27//27 34//34 35//35
f 27//27 36//36 28//28
f 28//28 29//29 20//20
f 28//28 36//36 29//29
f 29//29 36//36 37//37
f 29//29 38//38 30//30
f 30//30 31//31 22//22
f 30//30 38//38 31//31
f 31//31 38//38 39//39
f 31//31 40//40 32//32
f 32//32 25//25 24//24
f 32//32 40//40 25//25
f 33//33 34//34 25//25
f 33//33 41//41 34//34
f 34//34 41//41 42//42
f 34//34 43//43 35//35
f 35//35 36//36 27//27
f 35//35 43//43 36//36
f 36//36 43//43 44//44
f 36//36 45//45 37//37
f 37//37 38//38 29//29
f 37//37 45//45 38//38
f 38//38 45//45 46//46
f 38//38 47//47 39//39
f 39//39 40//40 31//31
f 39//39 47//47 40//40
f 40//40 41//41 33//33
f 40//40 47//47 48//48
f 41//41 50//50 42//42
f 41//41 56//56 49//49
f 42//42 43//43 34//34
f 42//42 50//50 43//43
f 43//43 50//50 51//51
f 43//43 52//52 44//44
f 44//44 45//45 36//36
f 44//44 52//52 45//45
f 45//45 52//52 53//53
f 45//45 54//54 46//46
f 46//46 47//47 38//38
f 46//46 54//54 47//47
f 47//47 54//54 55//55
f 47//47 56//56 48//48
f 48//48 41//41 40//40
f 48//48 56//56 41//41
f 49//49 50//50 41//41
f 49//49 57//57 50//50
f 50//50 57//57 58//58
f 50//50 59//59 51//51
f 51//51 52//52 43//43
f 51//51 59//59 52//52
f 52//52 59//59 60//60
f 52//52 61//61 53//53
f 53//53 54//54 45//45
f 53//53 61//61 54//54
f 54//54 61//61 62//62
f 54//54 63//63 55//55
f 55//55 56//56 47//47
f 55//55 63//63 56//56
f 56//56 57//57 49//49
f 56//56 63//63 64//64
f 57//57 66//66 58//58
f 57//57 72//72 65//65
f 58//58 59//59 50//50
f 58//58 66//66 59//59
f 59//59 66//66 67//67
f 59//59 68//68 60//60
f 60//60 61//61 52//52
f 60//60 68//68 61//61
f 61//61 68//68 69//69
f 61//61 70//70 62//62
f 62//62 63//63 54//54
f 62//62 70//70 63//63
f 63//63 70//70 71//71
f 63//63 72//72 64//64
f 64//64 57//57 56//56
f 64//64 72//72 57//57
f 65//65 66//66 57//57
f 65//65 73//73 66//66
f 66//66 73//73 74//74
f 66//66 75//75 67//67
f 67//67 68//68 59//59
f 67//67 75//75 68//68
f 68//68 75//75 76//76
f 68//68 77//77 69//69
f 69//69 70//70 61//61
f 69//69 77//77 70//70
f 70//70 77//77 78//78
f 70//70 79//79 71//71
f 71//71 72//72 63//63
f 71//71 79//79 72//72
f 72//72 73//73 65//65
f 72//72 79//79 80//80
f 73//73 82//82 74//74
f 73//73 88//88 81//81
f 74//74 75//75 66//66
f 74//74 82//82 75//75
f 75//75 82//82 83//83
f 75//75 84//84 76//76
f 76//76 77//77 68//68
f 76//76 84//84 77//77
f 77//77 84//84 85//85
f 77//77 86//86 78//78
f 78//78 79//79 70//70
f 78//78 86//86 79//79
f 79//79 86//86 87//87
f 79//79 88//88 80//80
f 80//80 73//73 72//72
f 80//80 88//88 73//73
f 81//81 82//82 73//73
f 81//81 89//89 82//82
f 82//82 89//89 90//90
f 82//82 91//91 83//83
f 83//83 84//84 75//75
f 83//83 91//91 84//84
f 84//84 91//91 92//92
f 84//84 93//93 85//85
f 85//85 86//86 77//77
f 85//85 93//93 86//86
f 86//86 93//93 94//94
f 86//86 95//95 87//87
f 87//87 88//88 79//79
f 87//87 95//95 88//88
f 88//88 89//89 81//81
f 88//88 95//95 96//96
f 89//89 98//98 90//90
f 89//89 104//104 97//97
f 90//90 91//91 82//82
f 90//90 98//98 91//91
f 91//91 98//98 99//99
f 91//91 100//100 92//92
f 92//92 93//93 84//84
f 92//92 100//100 93//93
f 93//93 100//100 101//101
f 93//93 102//102 94//94
f 94//94 95//95 86//86
f 94//94 102//102 95//95
f 95//95 102//102 103//103
f 95//95 104//104 96//96
f 96//96 89//89 88//88
f 96//96 104//104 89//89
f 97//97 98//98 89//89
f 97//97 105//105 98//98
f 98//98 105//105 106//106
f 98//98 107//107 99//99
f 99//99 100//100 91//91
f 99//99 107//107 100//100
f 100//100 107//107 108//108
f 100//100 109//109 101//101
f 101//101 102//102 93//93
f 101//101 109//109 102//102
f 102//102 109//109 110//110
f 102//102 111//111 103//103
f 103//103 104//104 95//95
f 103//103 111//111 104//104
f 104//104 105//105 97//97
f 104//104 111//111 112//112
f 105//105 114//114 106//106
f 105//105 120//120 113//113
f 106//106 107//107 98//98
f 106//106 114//114 107//107
f 107//107 114//114 115//115
f 107//107 116//116 108//108
f 108//108 109//109 100//100
f 108//108 116//116 109//109
f 109//109 116//116 117//117
f 109//109 118//118 110//110
f 110//110 111//111 102//102
f 110//110 118//118 111//111
f 111//111 118//118 119//119
f 111//111 120//120 112//112
f 112//112 105//105 104//104
f 112//112 120//120 105//105
f 113//113 114//114 105//105
f 113//113 121//121 114//114
f 114//114 121//121 122//122
f 114//114 123//123 115//115
f 115//115 116//116 107//107
f 115//115 123//123 116//116
f 116//116 123//123 124//124
f 116//116 125//125 117//117
f 117//117 118//118 109//109
f 117//117 125//125 118//118
f 118//118 125//125 126//126
f 118//118 127//127 119//119
f 119//119 120//120 111//111
f 119//119 127//127 120//120
f 120//120 121//121 113//113
f 120//120 127//127 128//128
f 122//122 121//121 2//2
f 122//122 123//123 114//114
f 124//124 123//123 4//4
f 124//124 125//125 116//116
f 126//126 125//125 6//6
f 126//126 127//127 118//118
f 128//128 121//121 120//120
f 128//128 127//127 8//8
